<svg xmlns="http://www.w3.org/2000/svg" aria-hidden="true" viewBox="0 0 400 480"><path fill="white" class="dot" d="M22.9 259.4c0-9.9 8-17.9 17.8-17.9 9.9 0 17.9 8 17.9 17.9 0 9.8-8 17.9-17.9 17.9-9.8 0-17.8-8-17.8-17.9zm17.8 22.3c-9.8 0-17.8 8-17.8 17.9 0 9.9 8 17.9 17.8 17.9 9.9 0 17.9-8 17.9-17.9-.1-9.9-8-17.9-17.9-17.9zm40.1-40.1c-9.8 0-17.8 8-17.8 17.9 0 9.8 8 17.9 17.8 17.9 9.9 0 17.8-8 17.8-17.9 0-10-7.9-18-17.8-17.9zm0 40.1c-9.8 0-17.8 8-17.8 17.9 0 9.9 8 17.9 17.8 17.9 9.9 0 17.8-8 17.8-17.9 0-9.9-7.9-17.9-17.8-17.9zm40.1-4.4c9.9 0 17.8-8 17.8-17.9 0-9.9-8-17.9-17.8-17.9s-17.8 8-17.8 17.9c0 9.9 8 17.9 17.8 17.9zm0 4.4c-9.8 0-17.8 8-17.8 17.9 0 9.9 8 17.9 17.8 17.9 9.9 0 17.8-8 17.8-17.9 0-9.9-7.9-17.9-17.8-17.9z"></path><path fill="white" d="M35.5 155.2c0 1-.2 1.9-.6 2.6-.4.8-.8 1.5-1.4 2.1-.4.5-1 1-1.6 1.3-.6.3-1.1.6-1.3.7-.4.1-1.3.4-2.8 1-1.5.6-3.2 1.2-5.1 1.9-1.9.7-4 1.4-6.1 2.1-2.1.7-4 1.4-5.7 1.9-3.5 1.2-6.3 3.4-8.2 6.4-1.9 3-2.8 6.3-2.8 9.9v34.7c0 2.3.5 4.6 1.4 6.8.9 2.1 2.4 4 4.4 5.6 2 1.6 4.6 2.8 7.6 3.7 3.1.9 6.7 1.3 10.9 1.3 8.2 0 14.3-1.7 18.2-4.9 3.9-3.3 6-7.5 6.1-12.5V0h-13v155.2zm0 62.6c0 .9-.2 1.8-.5 2.7-.4 1-1 1.8-1.7 2.5-.8.8-1.9 1.4-3.4 1.9s-3.3.7-5.6.7c-2.1 0-4-.2-5.4-.7-1.4-.5-2.6-1.1-3.4-1.9-.8-.7-1.4-1.7-1.8-2.7-.4-1-.6-2.1-.7-3.2v-29.4c0-1.6.3-3 1-4 .7-1.1 1.4-2 2.2-2.7.9-.8 1.9-1.5 3-2 1.5-.6 3-1.1 4.7-1.7 1.4-.5 2.9-1 4.5-1.5 1.6-.6 3.1-1.1 4.5-1.5.8-.2 1.6-.6 2.3-1.1l.3-.3v44.9zm65.9-49.6c-1.6-1.9-4.1-3.6-7.3-5s-7.7-2.1-13.3-2.1c-5.6 0-10.1.7-13.3 2.1-3.2 1.4-5.7 3-7.3 5-1.6 1.9-2.7 3.9-3.1 5.8-.4 1.9-.6 3.4-.6 4.6v41.1c-.1 3.3.7 6.2 2.5 8.7.8 1.1 1.8 2.2 2.9 3.1 1.2 1.1 2.6 2 4.4 2.8 1.8.8 3.8 1.5 6.2 2 2.3.5 5.1.8 8.3.8 4.3 0 7.9-.4 10.7-1.3 2.8-.8 5.1-1.9 6.7-3 2.3-1.6 4-3.6 5.1-5.8 1.1-2.2 1.7-4.7 1.7-7.2v-4H92v.6c0 1.3-.2 2.7-.7 4-.4 1.2-1.2 2.2-2.3 3-.5.3-1.4.8-2.8 1.3-1.3.5-3.2.7-5.5.7-1.8 0-3.3-.1-4.4-.4-1.1-.3-2-.6-2.8-.9-.8-.3-1.5-.7-1.9-1.1-.5-.5-.8-1-1.2-1.6-.8-1.2-1.1-2.8-1.1-4.9v-6.2c0-2.4.8-4.4 2.6-6.1 1.7-1.6 3.7-2.5 6-2.5h10.5c1.3 0 2.6-.2 3.9-.6 1.2-.3 2.4-.8 3.6-1.3 1.4-.6 2.6-1.5 3.7-2.6 2.3-2.3 3.8-4.5 4.4-6.5.6-2 .9-3.8.9-5.5v-6.7c0-1.1-.2-2.5-.6-4.5-.2-1.9-1.2-3.9-2.9-5.8zM92 183.3c0 2-.7 3.6-2.2 5s-3.1 2.1-5.1 2.1h-7.9c-.7 0-1.3.1-2 .1-.9.1-1.8.3-2.6.6-.9.3-1.7.7-2.4 1.3-.1.1-.2.1-.2.2v-12.1c0-.7.1-1.5.4-2.4.2-.9.8-1.7 1.6-2.4.8-.8 2-1.4 3.5-2 1.5-.6 3.6-.9 6.1-.9 2.4 0 4.4.3 5.8.9 1.4.6 2.6 1.3 3.3 2.1.8.8 1.2 1.6 1.4 2.5.2.8.3 1.7.3 2.6v2.4zm79.3 52.1c3.1-1.1 5.6-2.6 7.4-4.3 1.8-1.7 3.1-3.7 3.7-5.8.6-2 .9-3.9.9-5.7v-41.1c0-5-2-9.2-5.9-12.5-3.9-3.3-10.1-4.9-18.3-4.9-4.2 0-7.9.5-10.9 1.3-3 .9-5.6 2.1-7.6 3.7s-3.5 3.5-4.4 5.6c-.9 2.1-1.4 4.4-1.4 6.8v4h13v-.6c0-2.5.8-4.7 2.3-6.5 1.5-1.7 4.5-2.6 8.9-2.6 2.2 0 4.1.2 5.6.7 1.4.5 2.6 1.1 3.5 1.9.9.8 1.4 1.6 1.8 2.5.3.8.5 1.7.5 2.6v2.6c0 1-.2 1.9-.6 2.6-.4.8-.8 1.5-1.4 2.1-.4.5-1 1-1.6 1.3-.6.3-1.1.6-1.3.7-.4.1-1.3.4-2.8 1-1.5.6-3.2 1.2-5.2 1.9l-6.2 2.2c-2.1.7-4 1.4-5.7 1.9-3.4 1.2-6.1 3.4-8 6.4-1.9 3-2.8 6.3-2.8 9.9v6.5c0 1.7.3 3.6.9 5.7.6 2.1 1.9 4 3.7 5.8 1.8 1.7 4.3 3.2 7.4 4.3s7.2 1.7 12.1 1.7 9.2-.6 12.4-1.7zm-23.4-19.7c0-1.6.3-3 1-4 .7-1.1 1.4-2 2.2-2.7.9-.8 1.9-1.4 3-1.8 1.5-.6 3-1.1 4.7-1.7 1.4-.5 2.9-1 4.5-1.6 1.6-.6 3.1-1.1 4.5-1.6.8-.2 1.5-.6 2.2-1 .2-.1.3-.2.4-.3v14.8c0 3.2-.8 5.6-2.3 7.3-1.5 1.7-4.6 2.5-9 2.5-4.3 0-7.3-.8-8.8-2.4-1.6-1.7-2.4-4.2-2.4-7.5zm89.5 37.5c-.8 0-1.5 0-2.1.1-2.6.1-4.5.3-5.8.9-1.4.6-2.6 1.3-3.3 2.1-.8.8-1.2 1.6-1.4 2.5-.2.8-.3 1.7-.3 2.6v54.9h-13V259c0-1.1.2-2.6.6-4.5.4-2 1.4-4 3.1-5.9 1.6-1.9 4.1-3.6 7.3-5s7.7-2.1 13.3-2.1h.8c2.9 0 6 0 7 .1l.7.1-2.9 11.3h-.5c-.9.2-2.2.2-3.5.2zm51.4-4.7c-1.6-1.9-4.1-3.6-7.3-5s-7.7-2.1-13.3-2.1c-5.6 0-10.1.7-13.3 2.1-3.2 1.4-5.7 3-7.3 5s-2.7 3.9-3.1 5.9c-.4 1.9-.6 3.4-.6 4.5V300c0 1.1.2 2.6.6 4.5.4 2 1.4 4 3.1 5.9 1.6 1.9 4.1 3.6 7.3 5s7.7 2.1 13.3 2.1 10.1-.7 13.3-2.1c3.2-1.4 5.7-3 7.3-5 1.6-1.9 2.7-3.9 3.1-5.8.4-1.9.6-3.4.6-4.6v-41.1c0-1.1-.2-2.6-.6-4.6-.4-1.9-1.4-3.9-3.1-5.8zm-9.4 49.4c0 .9-.1 1.7-.4 2.5-.2.9-.8 1.7-1.6 2.4-.8.8-2 1.5-3.5 2-1.5.6-3.6.9-6.2.9-2.4 0-4.4-.3-5.8-.9-1.4-.6-2.6-1.3-3.3-2.1-.8-.8-1.2-1.7-1.4-2.6-.2-.8-.3-1.7-.3-2.5V261c0-.8.1-1.7.3-2.5.2-.9.7-1.8 1.4-2.6.8-.8 1.9-1.5 3.3-2.1 1.4-.6 3.4-.9 5.8-.9 2.6 0 4.7.3 6.2.9 1.5.6 2.7 1.3 3.5 2 .8.7 1.3 1.6 1.6 2.4.2.8.4 1.7.4 2.5v37.2zm119.2-45.8c-.9-2.1-2.4-4-4.4-5.6-2-1.6-4.6-2.8-7.6-3.7-3.1-.9-6.7-1.3-10.9-1.3-8.2 0-14.3 1.7-18.2 4.9-3.9 3.3-6 7.5-6.1 12.5v219.8h13V323.6c0-1 .2-1.9.6-2.6.4-.8.8-1.5 1.4-2.1.4-.5 1-1 1.6-1.3.6-.3 1.1-.6 1.3-.7.4-.1 1.3-.4 2.8-1 1.5-.6 3.2-1.2 5.1-1.9 1.9-.7 4-1.4 6.1-2.1 2.1-.7 4-1.4 5.7-1.9 3.5-1.2 6.3-3.4 8.2-6.4 1.9-3 2.8-6.3 2.8-9.9V259c0-2.4-.5-4.7-1.4-6.9zm-11.6 39c0 1.6-.3 3-1 4-.6 1-1.3 1.9-2.2 2.7-.9.8-1.9 1.5-3 2-1.5.6-3 1.1-4.7 1.7-1.4.5-2.9 1-4.5 1.5-1.6.6-3.1 1.1-4.5 1.5-.8.2-1.6.6-2.3 1.1l-.3.3V261c0-.9.2-1.8.5-2.7.4-1 1-1.8 1.7-2.5.8-.8 1.9-1.4 3.4-1.9 1.4-.5 3.3-.7 5.6-.7 2.1 0 4 .2 5.4.7 1.4.5 2.6 1.1 3.4 1.9.8.7 1.4 1.7 1.8 2.7.4 1 .6 2.1.7 3.2v29.4zM114.1 0H127v236h-12.9V0zm78.2 225.4c-.6-2-.9-3.9-.9-5.7v-4.6h12.9v.6c0 3.2.8 5.6 2.3 7.3 1.5 1.7 4.6 2.5 9 2.5 4.3 0 7.3-.8 8.8-2.4 1.5-1.6 2.3-4.1 2.3-7.4 0-1.6-.3-3-.9-4.1-.6-1.1-1.3-2-2.1-2.7-.9-.8-2-1.4-3.1-1.8-2.8-1-5.3-1.9-7.8-2.8-2.1-.7-9-3.1-10.5-3.6-1-.3-2-.9-3.3-1.7-1.3-.8-2.5-1.9-3.6-3-1.2-1.2-2.1-2.8-2.9-4.5-.8-1.8-1.2-3.8-1.2-6.1v-6.7c0-5 2-9.2 5.9-12.5 3.9-3.3 10-4.9 18.3-4.9 4.2 0 7.9.5 10.9 1.3 3 .9 5.6 2.1 7.6 3.7s3.5 3.5 4.4 5.6c.9 2.1 1.4 4.4 1.4 6.8v4h-13v-.7c0-2.5-.8-4.7-2.3-6.5-1.5-1.7-4.5-2.6-8.9-2.6-2.2 0-4.1.2-5.6.7s-2.6 1.1-3.5 1.9-1.4 1.6-1.8 2.5c-.3.8-.5 1.7-.5 2.6v2.6c0 1 .2 1.9.6 2.6.4.8.8 1.5 1.4 2.1.4.5 1 1 1.6 1.3.6.3 1.1.6 1.7.8.8.3 2.1.7 3.4 1.2 1.5.5 3.1 1.1 4.2 1.5l6.2 2.1c2.1.7 4 1.4 5.7 1.9 3.5 1.2 6.2 3.4 8 6.4 1.9 3 2.8 6.3 2.8 9.9v6.5c0 1.7-.3 3.6-.9 5.7-.6 2.1-1.9 4-3.7 5.8-1.8 1.7-4.3 3.2-7.4 4.3s-7.2 1.7-12.1 1.7-9-.6-12.1-1.7c-3.1-1.1-5.6-2.6-7.4-4.3-2.1-1.6-3.3-3.5-3.9-5.6zm99.1-53.5c.9 2.1 1.4 4.4 1.4 6.8v4h-13v-.7c0-2.5-.8-4.7-2.3-6.5-1.5-1.7-4.5-2.6-8.9-2.6-2.2 0-4.1.2-5.6.7-1.4.5-2.6 1.1-3.5 1.9s-1.4 1.6-1.8 2.5c-.3.8-.5 1.7-.5 2.6v2.6c0 1 .2 1.9.6 2.6.4.8.8 1.5 1.4 2.1.4.5 1 1 1.6 1.3.7.4 1.4.7 1.7.8.8.3 2 .7 3.4 1.2 1.5.6 3.2 1.1 4.2 1.5l6.2 2.1c2.1.7 4 1.4 5.7 1.9 3.5 1.2 6.2 3.4 8 6.4 1.9 3 2.8 6.3 2.8 9.9v6.5c0 1.7-.3 3.6-.9 5.7-.6 2.1-1.9 4-3.7 5.8-1.8 1.7-4.3 3.2-7.4 4.3-3.1 1.1-7.2 1.7-12.1 1.7s-9-.6-12.1-1.7c-3.1-1.1-5.6-2.6-7.4-4.3-1.8-1.7-3.1-3.7-3.7-5.8-.6-2-.9-3.9-.9-5.7v-4.6h12.9v.6c0 3.2.8 5.6 2.3 7.3 1.5 1.7 4.6 2.5 9 2.5 4.3 0 7.3-.8 8.8-2.4 1.5-1.6 2.3-4.1 2.3-7.4 0-1.6-.3-3-.9-4.1-.6-1.1-1.3-2-2.1-2.7-.9-.8-2-1.4-3.1-1.8-2.8-1-5.3-1.9-7.8-2.8-2.1-.7-9-3.1-10.5-3.6-1-.3-2-.9-3.3-1.7-1.3-.8-2.5-1.9-3.6-3-1.2-1.2-2.1-2.8-2.9-4.5-.8-1.8-1.2-3.8-1.2-6.1v-6.7c0-5 2-9.2 5.9-12.5 3.9-3.3 10-4.9 18.3-4.9 4.2 0 7.9.5 10.9 1.3 3 .9 5.6 2.1 7.6 3.7 1.8 1.8 3.2 3.7 4.2 5.8zm61.1 53.5c-.6-2-.9-3.9-.9-5.7v-4.6h12.9v.6c0 3.2.8 5.6 2.3 7.3 1.5 1.7 4.6 2.5 9 2.5 4.3 0 7.3-.8 8.8-2.4 1.5-1.6 2.3-4.1 2.3-7.4 0-1.6-.3-3-.9-4.1-.6-1.1-1.3-2-2.1-2.7-.9-.8-2-1.4-3.1-1.8-2.8-1-5.3-1.9-7.8-2.8-2.1-.7-9-3.1-10.5-3.6-1-.3-2-.9-3.3-1.7-1.3-.8-2.5-1.9-3.6-3-1.2-1.2-2.1-2.8-2.9-4.5-.8-1.8-1.2-3.8-1.2-6.1v-6.7c0-5 2-9.2 5.9-12.5 3.9-3.3 10-4.9 18.3-4.9 4.2 0 7.9.5 10.9 1.3 3 .9 5.6 2.1 7.6 3.7s3.5 3.5 4.4 5.6c.9 2.1 1.4 4.4 1.4 6.8v4h-13v-.7c0-2.5-.8-4.7-2.3-6.5-1.5-1.7-4.5-2.6-8.9-2.6-2.2 0-4.1.2-5.6.7-1.4.5-2.6 1.1-3.5 1.9-.9.8-1.4 1.6-1.8 2.5-.3.8-.5 1.7-.5 2.6v2.6c0 1 .2 1.9.6 2.6.4.8.8 1.5 1.4 2.1.4.5 1 1 1.6 1.3.7.4 1.4.7 1.7.8.8.3 2 .7 3.4 1.2 1.5.6 3.2 1.1 4.2 1.5l6.2 2.1c2.1.7 4 1.4 5.7 1.9 3.5 1.2 6.2 3.4 8 6.4 1.9 3 2.8 6.3 2.8 9.9v6.5c0 1.7-.3 3.6-.9 5.7-.6 2.1-1.9 4-3.7 5.8-1.8 1.7-4.3 3.2-7.4 4.3-3.1 1.1-7.2 1.7-12.1 1.7-4.9 0-9-.6-12.2-1.7s-5.6-2.6-7.4-4.3c-1.9-1.6-3.2-3.5-3.8-5.6zm-19-63.2h13v57.4c0 1.2-.2 2.6-.6 4.6-.4 1.9-1.4 3.9-3.1 5.8-1.6 1.9-4.1 3.6-7.3 5s-7.7 2.1-13.3 2.1-10.1-.7-13.3-2.1c-3.2-1.4-5.7-3-7.3-5-1.6-1.9-2.7-3.9-3.1-5.9-.4-1.9-.6-3.4-.6-4.5v-57.4h13v55.2c0 .8.1 1.7.3 2.5.2.9.7 1.8 1.4 2.6s1.8 1.5 3.2 2.1 3.4.9 5.9.9c2.6 0 4.7-.3 6.2-.9 1.5-.6 2.6-1.2 3.4-2s1.3-1.6 1.5-2.4c.2-.8.4-1.7.4-2.5l.3-55.5zm0 80.4h13V300c0 1.2-.2 2.6-.6 4.6-.4 1.9-1.4 3.9-3.1 5.8-1.6 1.9-4.1 3.6-7.3 5s-7.7 2.1-13.3 2.1-10.1-.7-13.3-2.1c-3.2-1.4-5.7-3-7.3-5-1.6-1.9-2.7-3.9-3.1-5.9-.4-1.9-.6-3.4-.6-4.5v-57.4h13v55.2c0 .8.1 1.7.3 2.5.2.9.7 1.8 1.4 2.6s1.8 1.5 3.2 2.1c1.4.6 3.4.9 5.9.9 2.6 0 4.7-.3 6.2-.9 1.5-.6 2.6-1.2 3.4-2s1.3-1.6 1.5-2.4c.2-.8.4-1.7.4-2.5l.3-55.5zm-129.9 68.8v-52.5c0-1.7-.3-3.6-.9-5.7-.6-2.1-1.9-4-3.7-5.8-1.8-1.7-4.3-3.2-7.4-4.3s-7.2-1.7-12.1-1.7-9 .6-12.1 1.7c-.8.3-1.6.6-2.5 1.1-5.4 2.9-9.6 5.9-9.6 14.7v20.7c0 3.6.9 7 2.8 9.9 1.9 3 4.6 5.1 8 6.4 1.7.6 3.6 1.2 5.8 1.9 2.2.7 4.2 1.5 6.2 2.1 1.9.7 3.7 1.3 5.1 1.8 1.5.5 3.6 1.3 4.2 1.5.6.2 1.2.5 1.7.9.6.4 1.1.9 1.3 1.4.2.5.4 3.7.4 4.7V317.3c0 2.1-.4 3.7-1.2 5-.3.6-.7 1.1-1.1 1.5-.4.4-1 .8-1.9 1.1-.7.3-1.6.7-2.7.9-1.1.3-2.6.4-4.4.4-2.3 0-4.2-.2-5.5-.7-1.3-.5-2.3-.9-2.7-1.2-1.1-.8-1.9-1.9-2.3-3-.4-1.3-.7-2.6-.7-4v-7.8h-13v11.1c0 2.5.6 5 1.7 7.2s2.8 4.2 5.1 5.8c1.6 1.1 3.9 2.2 6.7 3 2.8.9 6.4 1.3 10.7 1.3 3.2 0 6-.3 8.3-.8 2.3-.5 4.4-1.2 6.2-2 1.8-.8 3.2-1.8 4.4-2.8 1.1-1 2-2 2.9-3.2 1.7-2.5 2.6-5.4 2.5-8.7l-.2-9zm-13-19.5c-.1-.1-.3-.2-.4-.3-.5-.3-2.5-1.1-5-2-.7-.3-1.4-.5-1.8-.7-1.6-.6-3.1-1.1-4.5-1.6-1.7-.6-3.2-1.1-4.7-1.7-1.1-.4-2.2-1.1-3.1-1.8-.8-.8-1.5-1.7-2.1-2.7-.5-1.2-.9-15.6-.9-18.3 0-3.3.8-5.8 2.3-7.4 1.5-1.6 4.5-2.4 8.8-2.4 4.4 0 7.4.8 9 2.5s2.3 4.1 2.3 7.3l.1 29.1zm31.4 41.2c0 2.6-2.3 3.7-4.9 3.7-2.4 0-4.2-.7-5.1-2.9l1.8-.9c.5 1.3 1.9 1.9 3.3 1.9s2.7-.5 2.7-1.8c0-1.1-1.1-1.6-2.7-1.7-2.4-.3-4.6-.9-4.6-3.5 0-2.4 2.4-3.4 4.5-3.4 1.8 0 3.7.5 4.6 2.3l-1.8.9c-.4-.7-1.5-1.3-2.8-1.3-1.6 0-2.4.7-2.4 1.6 0 1 1.2 1.3 2.6 1.5 2.5.2 4.8.8 4.8 3.6zm6.2-8.2h2.2v11.7h-2.2v-11.7zm16.5-.1h2.2v11.7h-1.4l-6.1-7.9v7.9h-2.2v-11.7h1.8l5.7 7.2v-7.2zm17.5 8.7l1.5 1.5c-1.2 1.2-2.8 1.7-4.4 1.7-4.3 0-6.2-3-6.2-6 0-3.1 2-6.1 6.2-6.1 1.6 0 3.2.6 4.3 1.8l-1.5 1.4c-.8-.7-1.8-1.1-2.8-1.1-2.8 0-4 2.1-4 4.1 0 1.9 1.1 4 4 4 1-.1 2.2-.5 2.9-1.3zm7.3-8.6h8.7v2.1h-6.6v2.7h6.3v2.1h-6.3v2.6h6.6v2.2h-8.7v-11.7zm27.3 9.8h1.6v1.9h-5.6v-1.9h1.8v-7.8h-1.8v-2h4v9.8zm12.3-10.1c-2.4 0-4.8 1.3-4.8 3.9 0 2.9 2.5 3.9 4.8 3.9.9 0 2.2-.4 2.7-1.2v1.7c0 1.3-1.3 2-2.7 2-1.2 0-2.6-.5-2.6-1.6h-2.2c0 2.5 2.3 3.5 4.9 3.5 2.4 0 4.8-1.2 4.8-3.8v-4.4c-.1-2.7-2.6-4-4.9-4zm-.1 5.9c-1.5 0-2.6-.7-2.6-2s1.3-1.9 2.7-1.9c1.4 0 2.7.6 2.7 1.9-.1 1.3-1.3 2-2.8 2zm19.6-5.6h-3.4l-5.3 7.2.2 2.2h6.2v2.2h2.2v-2.2h1.4v-2.1h-1.4v-7.3zm-2.1 7.3h-4l4-5.4v5.4zm17.8-1.8c.9-.4 1.5-1.2 1.5-2.2 0-2.3-2.3-3.6-4.8-3.6s-4.7 1.2-4.7 3.6c0 .9.5 1.8 1.5 2.3-1 .4-1.7 1.4-1.8 2.5 0 2.7 2.5 3.8 5 3.8 2.6 0 5.1-1.1 5.1-3.8 0-.9-.6-2.1-1.8-2.6zm-3.2-3.9c1.5 0 2.5.7 2.5 1.6 0 1-1.1 1.6-2.5 1.6-1.3 0-2.4-.6-2.5-1.6 0-.8.8-1.6 2.5-1.6zm0 8.3c-1.8 0-2.8-.8-2.7-1.7 0-1.2 1.4-1.7 2.7-1.7 1.5 0 2.7.5 2.7 1.7 0 .9-.9 1.7-2.7 1.7z"></path></svg>